<?xml version="1.0" encoding="utf-8"?>
<svg version="1.1" id="Layer_1" xmlns="http://www.w3.org/2000/svg" xmlns:xlink="http://www.w3.org/1999/xlink" x="0px" y="0px" viewBox="0 0 75 26" style="enable-background:new 0 0 75 26;" xml:space="preserve">
    <path id="path-1_1_" d="M64.3,10.2c-2.7,0-4.9,2.2-4.9,4.9c0,2.7,2.2,4.9,4.9,4.9c2.7,0,4.9-2.2,4.9-4.9
	C69.2,12.4,67,10.2,64.3,10.2z M46.2,10.2c-2.7,0-4.9,2.2-4.9,4.9c0,2.7,2.2,4.9,4.9,4.9c2.7,0,4.9-2.2,4.9-4.9
	C51.2,12.4,49,10.2,46.2,10.2z M28.2,10.2c-2.7,0-4.9,2.2-4.9,4.9c0,2.7,2.2,4.9,4.9,4.9c2.7,0,4.9-2.2,4.9-4.9
	C33.1,12.4,30.9,10.2,28.2,10.2z M55.3,19.5c-1.6,3.3-5.1,5.6-9,5.6s-7.4-2.3-9-5.6c-1.6,3.3-5.1,5.6-9,5.6c-3.3,0-6.2-1.6-8-4
	c0,1.5,0,2.6,0,2.6c0,0.8-0.6,1.4-1.4,1.4h-2.3c-0.8,0-1.4-0.6-1.4-1.4v-8.6c0-2.8-2.2-5-4.9-5c-2.7,0-4.9,2.2-4.9,4.9
	c0,0.1,0,0.1,0,0.2c0,0,0,0.1,0,0.1v8.5c-0.1,0.7-0.7,1.3-1.4,1.3H1.4c-0.8,0-1.4-0.6-1.4-1.4c0,0,0-5.8,0-8.7c0,0,0-0.1,0-0.1
	C0.1,9.4,4.6,5,10.1,5c4,0,7.4,2.3,9,5.6c1.6-3.3,5.1-5.6,9-5.6c4,0,7.4,2.3,9,5.6c1.6-3.3,5.1-5.6,9-5.6C48,5,49.6,5.4,51,6.2V1.6
	c0-0.8,0.6-1.4,1.4-1.4h2.6c0.8,0,1.4,0.6,1.4,1.4V9c1.8-2.4,4.7-4,8-4c5.6,0,10.1,4.5,10.1,10.1c0,5.6-4.5,10.1-10.1,10.1
	C60.4,25.1,56.9,22.8,55.3,19.5z"/>
</svg>
